<?xml version="1.0" encoding="UTF-8"?>
<svg id="Layer_1" data-name="Layer 1" xmlns="http://www.w3.org/2000/svg" viewBox="0 0 70.02 89.53">
  <defs>
    <style>
      .cls-1 {
        fill: #b2b6bc;
      }

      .cls-2 {
        fill: #fff;
      }

      .cls-3 {
        fill: #9ba09f;
      }

      .cls-4 {
        fill: #4f5553;
      }

      .cls-5 {
        fill: #6e7170;
      }

      .cls-6 {
        fill: #e5e6e7;
      }

      .cls-7 {
        fill: #b0afac;
      }

      .cls-8 {
        fill: #141714;
      }

      .cls-9 {
        fill: #d0d1d0;
      }

      .cls-10 {
        fill: #5d565b;
      }

      .cls-11 {
        fill: #1e1d1c;
      }

      .cls-12 {
        fill: #333432;
      }

      .cls-13 {
        fill: #868788;
      }
    </style>
  </defs>
  <path class="cls-11" d="M9.27,12.28c.23-.05,1.33.02,1.3.28l-1.53-.06c-.12-.06.21-.22.23-.22Z"/>
  <path class="cls-8" d="M9.04,11.51c.11-.02.85-.02.85.06l-1.41.39c-.07-.22.46-.43.57-.44Z"/>
  <g>
    <path class="cls-11" d="M69.44,85.28c.19.53.54,1.55.57,2.07.02.31-.36,1.06-.34,1.36,0,.12.4-.1.34.33-.17,1.35-4.56-.38-4.88-1.36.1-.07.33-.7.23-.93-.06-.12-1.91-1.87-2.04-1.91.09-1.04-1.58-1.28-2.1-1.96-1.1.16-2.16.82-3.29.44-3.41-3.98-6.43-8.33-10.05-12.15-3.38-3.57-7.34-6.64-10.9-10.14-2.1-2.06-4.21-4.14-5.96-6.49-.32-.09-3.14,1.76-3.63,2.07-1.59,1.02-5.5,3.52-6.64,4.74-.02.02.03.48-.11.65-.28.35-.85.49-1.14.87.45.38.97.64,1.36,1.09.05.06-.05.48,0,.54.27.37,1.08.59,1.42.93,1.46,1.42,1.52,4.74,2.44,6.38.35.61,1.04.85,1.36,1.31,2.14,3.09,5.8,7.74,6.02,11.28.04.58.1,3.1-.28,3.38h-3.52l-.06-1.58c-1.79.13-3.2,2.05-5.05,2.23-.76.08-4.86-.23-5.56-.44-.15-.04-.57-.23-.62-.38.18-2.75,3.31-1.34,5.22-3,.39-.34.65-.79,1.02-1.14-2.01,0-1.33-.47-1.93-1.74-1.73-3.69-4.71-8.78-7.04-12.21-1.1-1.62-5.01-5.67-4.88-7.3.2-2.45,8-11.49,10.16-13.46,1.14-1.04,3.97-2.46,3.8-3.98-.02-.15-.9-2.54-1.02-2.83-.65-1.57-1.99-3.27-2.72-4.8-1.81-3.76-2.91-7.75-3.69-11.83-2.2.81-4.42,1.63-6.58,2.51-1.21.49-2.04,1.33-3.41,1.53-.46.07-.95-.19-1.48-.11-.83.13-2.53,1.29-3.24.27-.06-.09-.62-1.84-.68-2.07-.07-.27-.49-2.69-.45-2.83s1.6-1.81,1.82-2.18c.71-1.2,2.08-5.29,1.7-6.54-.04-.13-1.59-1.83-1.82-2.18-.34-.52-1.27-1.84-1.48-2.29-1.42-3.02,2.56.88,2.33,1.91-.35-.39-1.78-2.78-2.16-2.83-.47-.06-.04.6.06.82.26.57,2.85,4.22,3.29,4.58.55.44,1.18.85,1.87.38-.89.84.48.27.91,0,1.74-1.1,1.35-2.46,1.76-3.98.14-.51,1.29-2.15.62-2.34-1.21-.36-.98,1.84-1.31,2.34-.12.19-.79.39-.91.54-.04.06.29,0,.17.16-.43.59-.75.75-.79,1.63-.63-1.05-1.51-1.13-2.67-1.14.61-.76,2.11-.61,2.55.27,0-.23.62-.98.62-1.04,0-.04-.44-.51-.45-.65-.08-.88.05-2.53-.45-3.27-.76-1.12-.36,2.5-.4,2.78-1.38.37-1.51-2.03-2.21-2.56-.38-.29-.23.15-.57,0,.7-.61-.58-1.26-.96-1.69-.32,0-.12.35-.06.49.19.44,1.49,2.56,1.82,3.05.06.1,1.14.76.17.6-.25-.04-.54-.72-.68-.87-.07-.07-.32.23-.4.05-.02-.05.09-.64-.34-.98-.25-.2-.44-.15-.45-.16-.13-.76-.2-.73-.96-1.2-.32.64.78,1.05.96,1.2.03.15-.23.08-.23.16,0,.37,2.14,2.42,1.42,3.11.21-.99-2.54-3.95-2.55-4.31-.06-1.53,2.12,1.29,2.27,1.47.02.02,0,.26.17.33.21-.19-.16-.31-.17-.33-.4-.9-.88-1.67-1.48-2.45.22-.84,1.25.07,1.59.44.4.43,1.79,3.27,1.99,3.32.86.24,0-2.75.68-2.94,1.06-.3.91,3.65,1.36,4.14.63.25,1.13-2.41,1.48-2.62.24-.15,1.07-.17,1.19.05.25.46-.64,1.87-.79,2.51-.11.46.02,1.34-.11,1.85-.18.68-.81,1.07-1.02,1.63-.19.53-.62,5.07-.45,5.34,2.75-.9,4.39-3.97,7.1-5.29,2.03-.99,4.41-.79,6.47-1.74,1.16-.54,1.56-1.61,2.27-1.96.46-.23,1.24-.16,1.42-.38.41-.52.3-4.63-.23-5.12-.22-.21-3.17-.37-3.63-1.2,0-.37,3.12-.77,3.58-.82,3.49-.4,6.46-.11,9.82.82-3.05-1.15-6.24-1.53-9.48-.93.2-1.04-.14-2.77.68-3.49,1.7-1.47,6.62-1.59,8.12.16.71.83,1.34,3.94,1.7,4.36.28.32,2.37.48,2.72,1.09.82,1.4-3.55,1.54-3.86,2.18-.45.92.92,2.28.79,2.83-.08.36-.95.42-1.14.65-.04.05.04,1.09,0,1.2-.07.21-.41.13-.45.22-.07.13.33.66.23,1.09-.13.56-1.95.92.17,1.8,9.45,3.92,5.35,5.22,10.73,10.52,1.2,1.19.83-.09,2.21.27.27.07,2.79,1.74,2.89,1.91.04.07.14.86.23.98.27.38,1.09.84,1.48,1.31,3.91,4.74,3.35,5.47,9.82,7.14.29.07.88.55,1.36.65.88.19,1.05-.62,1.65.71l-.51.38c.37.18,2.09.61,2.21.82.47.78-.79.77-.91.87-.04.03.04.29,0,.33-.9.79-.24.43-.57.98-.91,1.52-4.79-1.4-5.39-1.25-.74.18.69,3.71-1.36,3.16-.65-.17-.16-.73-.17-.82-.14-.88-1.53-3.82-2.21-4.41-.78-.68-3.89-1.56-5.11-2.18-.47-.24-4.16-2.78-4.37-2.45.46,1.96-2.97-1.01-3.07-1.2-.3-.61.25-1.2-.17-1.58-.14-.12-2.06-.66-2.61-1.09-.61-.48-.72-1.07-1.25-1.53-.61-.53-1.59-1.05-2.27-1.53-.76,2.86-.52,5.99-.06,8.88.03.16-.26.4-.23.54.2.96,1.65,1.79,2.27,2.51,2.09,2.42,3.78,9.3,5.22,12.53.44.99,1.34,1.96,1.82,2.94s1.3,4.23,1.99,4.63c.12.07.81.07,1.02.22,3.06,2.19,6.02,3.56,8.57,6.49,2.78,3.19,4.07,7.08,8,8.88,1.62.74,1.17,2.3,1.65,3.54.58,1.49,2.57,3.41,3.29,5.4Z"/>
    <path class="cls-2" d="M35.78,40.48c.57,0,2,4.77,2.33,5.5,1.8,4.02,4.34,7.89,6.02,11.99l.91,1.2-2.04-4.9c1.33,2.31,2.42,4.91,3.41,7.41.05.14-.04.48,0,.65.63.07-.28-1.16.23-1.31.15.4.25,2.3-.17,2.34-4.37-7.02-8.38-14.31-11.41-21.96l.74-.93Z"/>
    <path class="cls-2" d="M4,16.28c.39.41,1.25.91,1.82.76.21-.05.52-.81.96-.49-.57,3.18.27,6.7-1.14,9.7-.13.27-.94,1.67-1.19,1.69-.66.04.04-1.23.06-1.58.1-1.9-1.18-3.94-.91-5.89l-1.02,2.4,1.42-6.59Z"/>
    <path class="cls-2" d="M45.89,28.05c.82-.15,1.34.69,1.87,1.14-1,.68-2.16,1.85-2.61,2.94-.11.27-.67,2.3-.68,2.51-.02.53.47.86.28,1.25-.53-.4-.48-1.05-.57-1.63l-.23.76-.11-.65c-.57,1.53-.46-1.15-.34-1.63-.74.21-.07,1.65-.62,1.8l.06-1.58-.51,1.14c.16-.44.03-1.03.11-1.42.12-.55,1.2-1.86.57-1.63-.09-.53.67-.89.85-1.14.11-.16-.22-.11-.17-.16.23-.28,1.35-1.31,1.65-1.47.02-.01.16.19.45.11.12-.03-.38-.26,0-.33Z"/>
    <path class="cls-2" d="M48.9,62.5c6.44,2.39,8.58,7.96,12.6,12.48.23.26,3.09,2.43,2.21,2.67-4.37-3.27-6.48-8.45-10.56-11.99-1.25-1.09-2.9-2.14-4.26-3.16Z"/>
    <path class="cls-2" d="M21.14,48.65c.27-.03.05.25,0,.33-.77,1.23-3.75,3.69-4.94,5.18-1.11,1.38-2.31,3.2-3.29,4.69-.38.57-2.12,3.95-2.55,3.87-.21-.13-.09-.29-.06-.49.19-1.11,3.14-5.54,3.97-6.65,1.97-2.61,4.4-4.76,6.87-6.92Z"/>
    <path class="cls-2" d="M27.04,45.49c1.7,4.98,5.62,9.52,9.54,13.08,1.95,1.78,4.29,3.22,6.13,5.12-3.78-2.79-7.68-5.65-10.73-9.21-2.15-2.51-4.36-5.77-4.94-8.99Z"/>
    <path class="cls-2" d="M33.74,41.57c1.4,2.49,2.28,5.22,3.58,7.79,1.62,3.22,3.73,7.02,5.56,10.14.72,1.23,2.76,3.71,3.18,4.69.07.17.15.25-.06.38-4.86-7.22-9.09-14.95-12.26-23Z"/>
    <path class="cls-2" d="M45.77,68.38c5.08,3.01,10.06,6.26,15.61,8.45-5.75-1.62-10.87-5-15.61-8.45Z"/>
    <path class="cls-2" d="M1.27,25c.39,1.54.65,3.55,2.5,4.03-3.02,1.77-3.51-2.17-2.5-4.03Z"/>
    <path class="cls-2" d="M22.61,47.89l6.3,3.98c-.59.06-1.43-.88-1.87-.93s-1.4.41-1.93.44c-1.18.05-2.35-.04-3.52-.11l4.82-.6c-1.35-.79-3.06-1.3-3.8-2.78Z"/>
    <path class="cls-2" d="M6.1,28.6c-.63.25-2.64.38-3.07-.38,1.88.74,2.55-1.17,3.07-2.51.46.66.72-1.63.85-2.13.04,1.74-.18,3.43-.85,5.01Z"/>
    <path class="cls-2" d="M15.46,68.27c3.16,3.95,7.54,6.09,12.09,8.23-4.18-1.11-7.81-3.44-10.78-6.43l-1.31-1.8Z"/>
    <path class="cls-2" d="M26.25,54.87c.08,0,.26-.03.28.05-3.85,1.7-7.39,4.06-11.24,5.78,2-1.18,3.89-2.59,5.96-3.65.69-.35,4.5-2.13,5-2.18Z"/>
    <path class="cls-2" d="M28.4,52.03l-10.16,4.85c3.03-2.23,6.55-3.71,10.16-4.85Z"/>
    <path class="cls-2" d="M6.1,28.6l.96-1.53,5.73-1.14-5.73,2.45.11-.54c-.31.32-.65.59-1.08.76Z"/>
    <path class="cls-2" d="M52.47,75.14c2.88,2.57,6.33,4.62,10.27,5.18-4.01-.05-7.9-2.12-10.27-5.18Z"/>
    <path class="cls-2" d="M17.96,74.38c2.46,3.05,5.86,5.13,9.93,5.4-4.11.41-7.94-2.02-9.93-5.4Z"/>
    <path class="cls-2" d="M18.98,74.05c2.7,2.28,5.81,4.33,9.59,4.09-3.71.76-7.44-1.3-9.59-4.09Z"/>
    <path class="cls-2" d="M22.39,58.46c-2.06,1.81-4.79,3.71-7.66,3.76l7.66-3.76Z"/>
    <path class="cls-2" d="M30.11,80.48c.08-.02.24-.02.28.05-1.16,1.68-3.57,2.24-5.56,2.29.93-.39,1.97-.64,2.89-1.04.44-.19,2.21-1.27,2.38-1.31Z"/>
    <path class="cls-2" d="M64.28,79.83c.12.19.53,1.39.51,1.47-.08.29-2.3,1.87-2.78,1.8-1.18-.18.53-.77.68-.87.92-.62,1.36-1.33,1.59-2.4Z"/>
    <path class="cls-2" d="M54.29,75.68c2.38,1.63,4.91,3.09,7.78,3.76-3-.13-5.72-1.77-7.78-3.76Z"/>
    <path class="cls-2" d="M14.33,62.93l6.64,2.45c-2.24-.22-4.92-1.05-6.64-2.45Z"/>
    <path class="cls-2" d="M13.76,63.59c1.63,1.38,3.44,2.53,5.51,3.22-2.21-.1-4.28-1.5-5.51-3.22Z"/>
    <path class="cls-9" d="M33.4,41.57c-.81.9-2.87,1.63-4.09,1.96-1.63.45-3.35.8-5.05.6,3.21-.16,6.36-1.02,9.14-2.56Z"/>
    <path class="cls-2" d="M39.3,30.78c.65.41,2.43.68,2.95.98.29.17.12.76-.34.76-.3,0-2.99-1.55-2.61-1.74Z"/>
    <path class="cls-2" d="M46.57,35.46l6.41,3.32c-2.27-.47-4.74-1.86-6.41-3.32Z"/>
    <path class="cls-2" d="M10.47,25.87c.26-.01.53,0,.79,0-1.19.65-2.7.9-4.03.38,0-.21,2.95-.37,3.24-.38Z"/>
    <path class="cls-2" d="M46.8,64.13l4.94,3.98c-1.66-1.26-3.89-2.12-4.94-3.98Z"/>
    <path class="cls-2" d="M39.53,30.34c1.18.1,2.28.56,3.46.16-.43.49-.21,1.22-1.08,1.04l.23-.33c-.86-.15-1.92-.32-2.61-.87Z"/>
    <path class="cls-6" d="M30.85,81.68v.11c-.75.31-4.97,3.43-5.11,3.81.54-1.09,3.9-3.57,5.11-3.92Z"/>
    <path class="cls-9" d="M34.88,38.62c.09-.02.22-.02.28.05.15.34-5.48,2.54-6.13,2.29,1.24-.48,2.57-.77,3.8-1.25.39-.15,1.93-1.07,2.04-1.09Z"/>
    <path class="cls-2" d="M48.9,62.5c-.14-.05-.65-.34-.68-.27,0,.53.07,1.13-.28,1.58l-.11-1.74-.51.93v-1.53c.17-.33,1.48.95,1.59,1.04Z"/>
    <path class="cls-2" d="M20,61.3c-.59,1.32-2.41,1.77-3.8,1.58,1.38-.31,2.83-.44,3.8-1.58Z"/>
    <path class="cls-2" d="M21.59,85.71c.24-.03,1.27.06,1.25.44l-1.02-.22c-.73.45-1.59.64-2.44.6.49-.11,1.86-.78,2.21-.82Z"/>
    <path class="cls-9" d="M65.41,86.37c.63.4.87,1.51,1.48,1.85.53.3.96.06,1.42.27l-1.19.05c-.76-.16-1.47-1.5-1.7-2.18Z"/>
    <path class="cls-9" d="M31.47,84.4c.42.31-.87,1.17-.85,1.25.04.19.92-.44.51.05-.67.2-1.4.52-2.1.38,1.21-.22,1.81-.68,2.44-1.69Z"/>
    <path class="cls-2" d="M64.68,78.41c.32.56.42,1.31.68,1.91l-.17.93c.02-1.15-.47-2.15-.96-3.16h.11c.07.09.33.31.34.33Z"/>
    <path class="cls-9" d="M68.14,84.62l.74,2.13.23-.33c.41,2.6-1.48-1.77-.96-1.8Z"/>
    <path class="cls-6" d="M16.48,60.75c.1,0,.25-.03.28.05-.16.41-2.56,1.07-2.61.76.6-.04,1.86-.79,2.33-.82Z"/>
    <path class="cls-2" d="M1.67,9.52c-.19-.15-1.29-.56-.96-1.2.76.47.84.44.96,1.2Z"/>
    <path class="cls-2" d="M23.86,45.6c.2-.06.92,2.23.79,2.29-.34-.13-.95-2.24-.79-2.29Z"/>
    <path class="cls-6" d="M1.95,23.04l-.23,2.4c-.16-.75-.12-1.67.23-2.4Z"/>
    <path class="cls-9" d="M22.16,86.48c.1-.02.34-.03.4.05-.28.15-1.96,1.27-2.16.87.54-.04,1.38-.87,1.76-.93Z"/>
    <path class="cls-9" d="M63.94,78.52c.19.22-.01,2.05-.34,1.96l.34-1.96Z"/>
    <path class="cls-2" d="M1.27,23.58c.23.56-.25,1.16-.68,1.53l.68-1.53Z"/>
    <path class="cls-9" d="M66.21,84.4c.57.43-.72,1.17-1.14,1.2l1.14-1.2Z"/>
    <path class="cls-9" d="M35.56,39.82c.38.17-1.07,1.35-1.25,1.42l1.25-1.42Z"/>
    <path class="cls-3" d="M67.57,83.53l.34,1.53c-.33.12-.54-1.28-.34-1.53Z"/>
    <path class="cls-2" d="M54.17,39.28c.22.04.61-.06.79,0,.04.01-.09.59.06.71l-.85-.71Z"/>
    <path class="cls-2" d="M37.15,27.72c.12-.02.91.18.96.38-.33.32-1.53-.27-.96-.38Z"/>
    <path class="cls-6" d="M64.85,83.42c.02.47-.79.88-1.19.93l1.19-.93Z"/>
    <path class="cls-9" d="M22.61,41.46l1.65.38c-.02.09-1.68.15-1.65-.38Z"/>
    <path class="cls-2" d="M64.39,82.66c.1.34-.94,1-1.19.71l1.19-.71Z"/>
    <path class="cls-9" d="M65.75,80.92c.07,0,.18,1.34-.11,1.42-.17-.17.04-1.42.11-1.42Z"/>
    <path class="cls-9" d="M22.96,84.84l1.19.6c-.31.02-1.22-.23-1.19-.6Z"/>
    <path class="cls-13" d="M66.83,83.1h-.23c-.08-.18-.5-.63-.17-.98.06.48.26.5.4.98Z"/>
    <path class="cls-6" d="M7.06,21.73l.62.16c-.32.13-1.09.46-.62-.16Z"/>
    <path class="cls-9" d="M18.98,86.37c.72-.09-.45.5-.57.76-.23-.07.33-.73.57-.76Z"/>
    <path class="cls-13" d="M64.68,78.41c-.02-.06,0-.21.06-.22l.85.71c-.16.02-.89-.44-.91-.49Z"/>
    <path class="cls-9" d="M25.74,85.6c-.07.19.73,1.27-.23.27-.06-.38.22-.26.23-.27Z"/>
    <path class="cls-2" d="M66.83,83.1c.06.2.23.41.06.65-.27-.14-.21-.5-.28-.65h.23Z"/>
    <path class="cls-1" d="M19.1,87.24l.85.38c-.19.12-1.04-.02-.85-.38Z"/>
    <path class="cls-2" d="M23.75,86.15c.51-.06.05.49-.34.44-.07-.1.31-.43.34-.44Z"/>
    <path class="cls-2" d="M24.32,85.39c.1-.06.51.04.51.16,0,.35-.87.03-.51-.16Z"/>
    <path class="cls-6" d="M37.03,28.27s.57-.07.51.16c-.22.26-.82,0-.51-.16Z"/>
    <path class="cls-6" d="M23.41,85.6s.57-.07.51.16c-.2.17-.81.01-.51-.16Z"/>
    <path class="cls-13" d="M64.34,78.08h-.11c-.05-.11-.62-.24-.17-.54.05.23.14.36.28.54Z"/>
    <path class="cls-9" d="M67.23,83.64l.11.65c-.31-.24-.34-.32-.11-.65Z"/>
    <path class="cls-7" d="M65.3,84.73c.41.05-.32.43-.4.27l.4-.27Z"/>
    <polygon class="cls-5" points="46.8 33.17 46.97 33.23 46.57 33.61 46.8 33.17"/>
    <path class="cls-13" d="M30.22,1.02c.24.02.52-.06.74.05,0,.05-.75.16-.74-.05Z"/>
    <path class="cls-3" d="M2.58,9.96s.38.14.17.33c-.18-.06-.15-.31-.17-.33Z"/>
    <polygon class="cls-9" points="22.5 85.17 22.61 85.28 22.61 85.39 22.5 85.39 22.5 85.17"/>
    <path class="cls-13" d="M30.85,81.79v-.11s.04-.23.23-.05l-.23.16Z"/>
    <polygon class="cls-9" points="24.66 3.31 24.83 3.36 24.77 3.53 24.71 3.47 24.66 3.31"/>
    <g>
      <path class="cls-2" d="M23.52,12.46c.15-.02.43-.06.4.16-1.25.85-1.52,2.33-1.25,3.71.23,1.15,2.41,4.21,2.38,4.8,0,.11-.8,1.58-.91,1.96-.8,2.94-1.15,6-1.02,9.05.07,1.74.53,3.5.68,5.23.03.36-.41-.09-.34.22.01.06.57.71.68,1.09.29.96.52,2.02.74,3-.7-.25-3.01-.02-2.61-1.2l1.08.71c-.84-.78-1.68-1.57-2.16-2.62l1.48,1.09c-.98-1.18-2.36-2.58-3.07-3.92-.17-.33-1.47-3.61-1.48-3.81-.01-.36.26-.09.28-.49.11-.02.82,1.51.96,1.69.03.04.34.43.34.11-.34-.39-2-3.51-1.93-3.71.04-.12.22-.05.28.05-.37-1.77-.82-3.53-.51-5.4-.42.88-.14,1.97-.34,2.94-.28.09-.33-.96-.34-1.09-.08-.88.11-1.74.11-2.62l-.45,1.74-.57-5.56-.34,1.74-.28-.27c-.25-.13.31,2.73.11,3.05l-1.25-3.38.68,2.83c-.09-.58-3.82-2.06-3.92-1.8,1.11.66,2.6.71,3.52,1.63l-.57-.11.68.76-1.65-.16,1.14.44h-1.48c1.09.5-1.13.12-1.53.49.83.11,1.84-.2,2.67-.05.16.03.4-.06.23.22-1.43.25-5.19,1.31-6.47.87-.98-.33,1.98-.46,2.1-.6l-2.21.05c-.19-.41.55-.11.62-.27.02-.04-.71-.23-.62-.49l1.42.05-1.08-.38,2.21-.16-2.33-.05,1.19-.27c-.43-.13-1.29-.12-1.42-.6.75.2,1.54.45,2.33.27-.92-.23-2.33-.11-2.84-.98,1.89-.76,3.08-2.62,4.6-3.87s3.18-2.37,5-2.94l-.79,1.74c1.21-1.49,2.84-2.23,4.77-2.51l.11.22c-.71.47-1.6,3.74-1.19,4.2.51.57,1.11-.47,1.42-.6,1.2-.5,1.72.97,2.5,1.53v-.76l.79.76c-.33-1.36-2.67-1.99-2.61-3.38-.4.66-1.18,1.85-1.99,2.02.24-1.1.3-2.28.91-3.27.25-.41,2.75-3.06,3.12-3.11Z"/>
      <path class="cls-11" d="M19.78,24.56l-.68,4.58c-.44,0,.37-4.22.68-4.58Z"/>
      <path class="cls-10" d="M21.59,36.55l2.04,3.05c-.79-.89-1.7-1.92-2.04-3.05Z"/>
      <path class="cls-11" d="M22.39,16.17l.68,1.96c-.4-.54-.76-1.28-.68-1.96Z"/>
      <path class="cls-5" d="M22.73,13.34l-.68,1.42c-.17-.49.39-1.05.68-1.42Z"/>
    </g>
    <g>
      <path class="cls-2" d="M25.23,5.6c2.08-.23,5.37.38,7.38.98.39.12,2.78.91,1.53.82l-.06,1.04c-1.31-.67-2.5-1.13-3.92-.38.51.07,1.02-.14,1.53-.05.2.03,1.71,1.16,1.76,1.25.07.15-.07.72,0,.87.46.95,1.65,1.84-.28,2.02l.23-.33c-.56-.07-1.14.26-1.14-.44-.54.77.76.5.96,1.25-.07.39-1.73.48-2.04.22.12.67,1.98.09,2.04.44.11.6-1.08.12-1.25.33,1.4.96.98,1.94-.74,1.69-.62-.09-3.72-2.06-4.14-2.56-.6-.7-.46-1.89-1.59-1.74l.45.65-.23,4.69.62-3.76.06.6.28-.38c.68.46,1.26,4.02,1.42,4.2.12.13.28-.32.45-.11l-3.46,3.54c-.79-2.09-2.17-3.25-1.87-5.61.04-.3.38-1.6.79-1.63-.17.88-.72,1.85-.45,2.72.23-1.91,1.63-3.57,1.36-5.56.37.09.3.7.79.33-1.24-.45-1.09-3.02-.06-3.43,1.35-.54,1.07,1.9,1.7,1.96,1.41-.17.85-.87,1.08-1.25.11-.19.54-.21.68-.76.35-1.41-1.2-1.02-2.21-1.14l.23-.22c-1.27-.02-2.58.04-3.75.54,0-.44,1.49-.73,1.82-.76Z"/>
      <path class="cls-11" d="M25.68,7.67l.62.27-.57.11c.32.16.71.37.4.71-.21-.19-.36-.51-.62-.16-.07.29,1.66.99.11.76-.1.51.74.62.28.93-.74-.34-.89-2.48-.23-2.62Z"/>
      <path class="cls-11" d="M30.56,9.09c.24.5,1.94.05,1.99.38.11.79-1.94.2-1.99-.38Z"/>
    </g>
    <g>
      <path class="cls-2" d="M47.48,30.34c.23-.04.82-.02,1.02.11.46.33-.24.04-.11.44,2.17.46,3.31,3.07,4.71,4.63.73.81,1.69,1.45,2.33,2.34l.11-.44c.37.33,3.75,2.18,3.92,1.91.01-.02-.4-.08-.17-.27,1.21.12,2.46.77,3.63.54-.05.89-1.3.19-1.76.27l3.86,1.74c-.08.27-1.65.17-1.87.05-.3-.15.06-.38-.11-.44-.7-.23-1.8-.19-2.5-.76.73.91,2.4,1.25,3.52,1.63.68.4-1.3.36-1.48.33-.53-.11-1.25-.81-1.93-.87l-.68-.87c-.38,1.29,3.62,2.22,3.58,2.56-.33.33-.96.34-1.42.27-.77-.11-3.85-2.27-4.26-1.04-.04.14.45,3.31-.51,2.56-.06-.05-.17-1.26-.28-1.58-.43-1.18-1.38-3.04-1.93-4.25-.86-1.9-5.85-4-7.66-5.5-.05-.04-.37.26-.4-.16l.85-.93c-.53.14-.99-.42-1.25-.54-.31-.14-.75.46-.45-.44l-.62.38c.39-.46,1.25-1.58,1.87-1.69Z"/>
      <polygon class="cls-11" points="56.67 38.84 58.55 39.66 57.41 39.44 59 40.75 58.03 40.26 56.67 38.84"/>
      <path class="cls-11" d="M55.88,40.26l1.25,2.29c-.46-.73-1.48-1.3-1.25-2.29Z"/>
      <path class="cls-13" d="M60.87,40.04c.18.2.54.37.34.65l-.34-.65Z"/>
    </g>
    <g>
      <path class="cls-2" d="M27.38,2.44c1.91-.23,4.82.13,6.36,1.31.04.03.45.33.11.33-1.33-.87-2.82-1.55-4.48-1.36,1.93.16,3.51.77,5,1.96l-.68-.11.91.98c-3.32-.96-6.52-2-10.05-1.14.02-.97,1.65-1.04,2.44-1.36-.26-.34-1.87.47-1.93.22.66-.35,1.55-.72,2.33-.82Z"/>
      <path class="cls-5" d="M27.72,3.09s.23.16.11.22l-2.33.38c-.03-.11,2.08-.62,2.21-.6Z"/>
      <polygon class="cls-4" points="24.77 3.96 24.94 4.02 24.77 4.18 24.71 4.13 24.77 3.96"/>
    </g>
    <g>
      <path class="cls-9" d="M28.29.37c.1,0,.23-.04.28.05l-.28.27c1.39-.18,2.79-.06,4.09.44-.45.28-1.46-.28-2.04-.33-.78-.06-1.86-.07-2.55.27.54.08,1.32-.37,1.7,0l-.62.05c.97.39-.29.09-.34.54,1.11-.26,2.56-.03,3.52.54-.64-.05-1.29-.4-1.93-.44-.11,0-.87-.12-.68.22,1,0,2.16.17,3.01.71-1.48-.35-2.81-.7-4.37-.6-.33.02-2.64.62-2.67.49-.02-.07,1.12-.6-.51.05.03-.73,1.28-.57,1.76-.93l-1.65.38.74-.6-.28-.16c.77-.31,2.01-1.02,2.84-.98Z"/>
      <path class="cls-5" d="M28.06.58c.33.15-.59.43-.62.27l.62-.27Z"/>
    </g>
    <g>
      <path class="cls-2" d="M24.88,83.21c.55-.04.71.17,1.19.27-.93,1.33-1.08,2.12-2.84,1.2.37-.65.81-1.42,1.65-1.47Z"/>
      <path class="cls-5" d="M24.88,84.3c.23.05-.28.49-.34.54-.23-.05.28-.49.34-.54Z"/>
    </g>
    <g>
      <path class="cls-2" d="M30.11,15.41c.08-.06,1.8.43,1.87.49.03.03.33.82.34.87.58,3.26-.77,1.6-1.42-.05l-4.31,3.71,1.25-.87c.38-.04-.27.4.11.33s1.56-1.2,2.27-1.31c1.15-.17,1.86.77,2.16.65.57-.23.06-2.38.34-2.4.44.5,1.31.43,1.82.65.86.37,1.77.81,2.61,1.2,2.88,1.33,4.76,7.78,7.55,9.76-.62.17-1.39,1.68-1.65,1.8-.97.45-3.86-.68-3.92-.49l.96.49c-.83-.18-1.79.15-2.16-.76l2.33.05c-.4-.4-1.6-.02-1.76-.6l2.78-.27-1.31-.05c-.55-.48-.95-.49-1.7-.44.7-.28.25-.12-.11-.44l1.36-.33-2.38.11c-.28-3.19,2.01-2.78,4.48-2.67-.83-.48-1.57-.71-2.55-.6l.79.33c-2.41-.24-2.83,1.12-3.29,3.05l.06-2.02-.45,1.85c-.29-.55.05-3.81-.45-2.72.12-.7-.17-.04-.28-.16-.13-.15-.24-.84-.45-.76.2.85.62,1.66.51,2.56l-3.41,5.34c0,.33.44-.2.45-.22.72-.84,1.25-2.1,1.87-3,.42.16-2.24,4.13-2.55,4.52l3.07-4.47c-.37,2.19-1.94,4.31-3.41,6.1,1.64-1.26,2.62-3.15,3.46-4.96-.4,2.02-1.12,4.26-2.78,5.61l1.02-.65,1.53-2.67-1.19,3.65c.75-.36.75-1.64,1.36-2.18l-.79,2.29.74-1.04c.12,1.01-.63,1.96-1.19,2.78.69-.19.93-1.19,1.31-1.69l-.62,1.69.23.11.62-1.25c.3,2.76-3.88,2.82-5.68,3.92-.33,0,.06-.28.11-.33.44-.39,1.1-.62,1.53-1.04-.54-.19-1.24.91-1.93.87l1.76-2.02c-1.57,1.68-3.44,3.04-5.68,3.81-.56-.13-1.68-5.79-1.76-6.59-.52-5.16-.34-11.11,2.61-15.37l.17.27c.82-1.37,2.38-2.2,3.35-3.43.16-.2.35-1,.4-1.04Z"/>
      <path class="cls-12" d="M30.67,36.77c.07.46-.96,1.3-1.36,1.63-.69.57-1.7,1.25-2.55,1.58l3.92-3.22Z"/>
      <path class="cls-11" d="M25.79,22.27c.62-.08.61.97.23,1.09-.73.24-.83-1.01-.23-1.09Z"/>
      <path class="cls-11" d="M37.26,20.42c-.65,1.18-1.12,2.35-1.25,3.71-.17-1.3.27-2.77,1.25-3.71Z"/>
      <path class="cls-5" d="M28.35,18.24l-.11-.11c.81-.69,2-1.22,2.04-2.45.58.91-1.17,1.99-1.93,2.56Z"/>
      <path class="cls-12" d="M34.65,18.46c1.48.67,1.41.94,1.02,2.4-.32-.23.19-1.28.17-1.36-.06-.31-1.19-.6-1.19-1.04Z"/>
      <path class="cls-3" d="M33.85,27.18c.05.7-.46,1.54-.91,2.07l.91-2.07Z"/>
      <path class="cls-11" d="M28.35,18.24c-.3.23-.63.71-1.02.71.28-.3.6-.55.91-.82l.11.11Z"/>
      <path class="cls-9" d="M41.91,29.36c.2.02.45-.06.62.05,0,.05-.67.15-.62-.05Z"/>
      <g>
        <path class="cls-11" d="M28.63,36.77c-.29.67-1.29,1.52-1.93,1.85-.83.43-2.07.91-1.48-.54.61-.32.57.6.79.65.26.07,2.36-1.59,2.61-1.96Z"/>
        <path class="cls-13" d="M25.34,38.19c.24-.1.11.34-.11.33-.07-.06.1-.32.11-.33Z"/>
      </g>
      <g>
        <path class="cls-11" d="M25,24.67c.59-.07.6.97.23,1.09-.74.24-.82-1.02-.23-1.09Z"/>
        <polygon class="cls-9" points="25 24.89 25.17 24.94 25 25.11 24.94 25.05 25 24.89"/>
      </g>
      <g>
        <path class="cls-11" d="M25,35.35c.55-.15.7.93.34,1.09-.66.3-.81-.96-.34-1.09Z"/>
        <polygon class="cls-3" points="25 35.57 25.17 35.63 25 35.79 24.94 35.74 25 35.57"/>
      </g>
      <g>
        <path class="cls-11" d="M24.54,27.29c.72-.22.71.99.23,1.09-.59.12-.63-.97-.23-1.09Z"/>
        <path class="cls-3" d="M24.66,27.4c.16.02-.04.34-.11.33-.16-.02.04-.34.11-.33Z"/>
      </g>
      <g>
        <path class="cls-11" d="M24.88,32.63c.46-.02.55.94.23,1.09-.69.31-.84-1.06-.23-1.09Z"/>
        <polygon class="cls-1" points="24.88 32.85 24.94 33.01 24.77 33.07 24.71 33.01 24.88 32.85"/>
      </g>
      <g>
        <path class="cls-11" d="M24.77,29.9c.42.02.52.95.23,1.09-.79.39-.83-1.11-.23-1.09Z"/>
        <polygon class="cls-13" points="24.66 30.12 24.83 30.18 24.66 30.34 24.6 30.29 24.66 30.12"/>
      </g>
    </g>
  </g>
</svg>